<svg width="355" height="52" viewBox="0 0 355 52" fill="none" xmlns="http://www.w3.org/2000/svg">
<path fill-rule="evenodd" clip-rule="evenodd" d="M353.047 49.1253L351.361 47H351.095V51H351.911V48.905L352.914 50.1433H353.18L354.184 48.905V51H355V47H354.734L353.047 49.1253ZM350.373 47.7976V47.072H347V47.7976H348.276V51H349.092V47.7976H350.373Z" fill="white"/>
<path fill-rule="evenodd" clip-rule="evenodd" d="M115.889 4V51.2163H107.048V4H115.889ZM77.3187 22.1843V4.00049H68.4776V51.2163H76.5983V47.2541L76.7247 47.4192C78.9817 50.3128 82.5052 51.9358 86.7688 51.9949L87.0109 51.9966L87.2786 51.9945C96.0901 51.8563 102.596 44.8988 102.726 35.4637L102.728 35.1741L102.726 34.8874C102.597 25.4523 96.0924 18.4938 87.2813 18.3542L87.0109 18.3521L86.7488 18.3539C82.836 18.4067 79.7625 19.6487 77.4704 22.0242L77.3187 22.1843ZM136.826 18.3477L136.998 18.349L137.171 18.3521L137.44 18.3541C146.18 18.4822 152.308 24.8655 152.429 33.0423L152.431 33.2906L152.428 33.6514C152.402 34.9781 152.236 36.3488 151.929 37.7223L151.842 38.0969H129.117L129.165 38.2763C130.247 42.1948 133.474 44.395 138.01 44.4608L138.22 44.4623L138.487 44.4597C141.507 44.4018 144.352 43.3607 147.022 41.3908L147.257 41.2146L150.924 47.1898L150.687 47.3827C146.963 50.3747 142.818 51.931 138.25 51.9945L137.554 52L137.26 51.9972C127.573 51.8288 120.019 44.245 120.211 35.1741C120.017 26.0012 127.617 18.3482 136.826 18.3477ZM43.7904 18.3521L44.0326 18.3538C48.2961 18.4128 51.8201 20.0345 54.0767 22.928L54.2031 23.0931V19.0666H62.3237V51.2163H54.0724V47.4489L53.9437 47.61C51.6905 50.378 48.2327 51.9359 44.038 51.9948L43.7904 51.9966L43.52 51.9944C34.6205 51.8534 28.0736 44.7551 28.0736 35.1741C28.0736 25.5935 34.6205 18.4953 43.52 18.3542L43.7904 18.3521ZM31.3971 10.9003L31.3945 11.1892C31.3433 13.9761 30.5529 16.5839 29.21 18.8284L29.0691 19.0593L28.9476 19.2515C26.2029 23.5244 21.4147 26.3805 15.9482 26.4636L15.703 26.4655V39.1329L15.7042 39.2919C15.7567 42.759 17.5434 44.0959 21.5453 44.135L21.837 44.1351L22.1139 44.1286L22.5737 44.1101L23.2946 44.0708L24.038 44.0221L24.9129 43.9575L25.9207 43.8754V51.2163L25.5024 51.3169C23.6842 51.7397 21.9159 51.9649 20.1968 51.9931L19.8292 51.9961L19.5846 51.9949C11.6274 51.9159 6.95449 47.9677 6.86183 40.1507L6.86043 39.9127V26.4655H0V19.0666H15.703L15.8612 19.0651C20.2793 18.9824 23.8448 15.4387 23.9281 11.0571L23.9296 10.9003H31.3971ZM198.957 19.1935L198.794 19.1927C190.225 19.1937 182.947 26.7766 183.14 35.5637C182.946 44.3733 190.39 51.9083 199.243 51.8692L199.772 51.8636C204.624 51.7903 208.972 49.6709 212.053 46.2077L212.216 46.0209L210.122 43.8773L209.958 44.0665C207.223 47.1892 203.824 48.7518 199.819 48.8118L199.578 48.8136L199.366 48.8121C192.402 48.7116 187.044 43.6484 186.559 36.4978L186.546 36.2782H213.003L213.036 36.1488C213.164 35.6175 213.229 34.9245 213.253 34.0698L213.262 33.6289L213.264 33.3984L213.265 33.1611L213.263 32.9131C213.14 24.7554 206.962 19.3066 199.352 19.1974L199.119 19.1957L198.957 19.1935ZM299.038 19.1927L299.206 19.1935L299.374 19.1957L299.63 19.1976C304.739 19.2744 309.1 21.6487 312.002 25.4358L312.146 25.6263L309.787 27.5098L309.637 27.3167C307.024 24.0019 303.682 22.3134 299.61 22.2509L299.374 22.249L299.155 22.2508C292 22.3662 286.519 28.1161 286.41 35.2814L286.409 35.499L286.41 35.7225C286.52 43.0107 292.001 48.6989 299.094 48.8119L299.31 48.8136L299.545 48.8118C303.616 48.7493 306.96 47.0608 309.633 43.746L309.787 43.5529L312.146 45.4354L312.002 45.626C309.098 49.4139 304.677 51.7868 299.566 51.8636L299.31 51.8655L299.043 51.8692C290.252 51.907 282.809 44.308 283.003 35.499C282.809 26.7128 290.214 19.1927 299.038 19.1927ZM331.692 19.1935L331.53 19.1927C322.961 19.1937 315.682 26.7766 315.876 35.5637C315.681 44.3733 323.125 51.9083 331.979 51.8692L332.508 51.8636C337.359 51.7903 341.708 49.6709 344.789 46.2077L344.953 46.0209L342.857 43.8773L342.693 44.0665C339.96 47.1892 336.56 48.7518 332.555 48.8118L332.314 48.8136L332.102 48.8121C325.138 48.7116 319.78 43.6484 319.294 36.4978L319.281 36.2782H345.739L345.772 36.1488C345.932 35.4847 345.992 34.568 345.999 33.3984L346 33.1611L345.998 32.9131C345.875 24.7554 339.698 19.3066 332.088 19.1974L331.855 19.1957L331.692 19.1935ZM240.242 19.8454L251.899 46.2805L263.49 19.8454H267.027L252.62 51.8655H251.244L236.705 19.8454H240.242ZM167.729 19.1976L167.49 19.1957L167.228 19.1978C164.527 19.2411 162.256 19.9574 160.352 21.404C158.441 22.8579 157.459 24.742 157.407 27.1752L157.405 27.3792L157.407 27.5612C157.475 30.8133 159.365 32.8181 162.736 34.5956L163.116 34.7922L163.509 34.9872L163.914 35.181L164.33 35.3739C164.541 35.4702 164.757 35.5662 164.977 35.6621L165.198 35.7581L168.08 36.9928L168.883 37.3575L169.444 37.6164L169.799 37.7833L170.304 38.0269L170.622 38.1857L170.925 38.3426L171.215 38.498L171.491 38.6529C173.418 39.762 174.297 40.8747 174.547 43.1334L174.564 43.2928L174.562 43.4472C174.475 46.8704 171.516 48.7576 167.663 48.8124L167.49 48.8136L167.273 48.8117C163.458 48.7435 160.54 46.8706 157.759 43.4248L157.602 43.2281L155.31 45.3711L155.441 45.5587C158.086 49.2905 162.137 51.7841 167.176 51.8636L167.425 51.8655L167.7 51.8633C170.436 51.8177 172.769 51.0898 174.699 49.7309L174.89 49.5929L175.044 49.4767C176.923 48.0275 177.916 45.9948 177.967 43.3768L177.969 43.1633L177.967 42.9753C177.899 39.4889 175.937 37.3117 172.325 35.3642L171.932 35.1563L171.526 34.95C171.457 34.9157 171.388 34.8814 171.318 34.8472L170.894 34.6425C170.822 34.6085 170.75 34.5744 170.677 34.5404L170.234 34.3367L170.008 34.2349L166.836 32.8357L166.216 32.5676L165.824 32.3935L165.449 32.2225L165.35 32.1765L165.267 32.138L164.916 31.9708L164.581 31.8055C164.472 31.7507 164.366 31.6962 164.262 31.6418L163.959 31.479L163.671 31.3167C161.757 30.2085 160.916 29.1032 160.877 27.3173L160.875 27.1854L160.877 27.0395C160.959 23.9972 163.598 22.3025 167.125 22.2503L167.294 22.2491L167.503 22.2512C170.427 22.3103 173.052 23.6102 175.379 26.0955L175.545 26.2751L177.707 24.1973L177.577 24.0319C175.265 21.1294 171.925 19.2656 167.729 19.1976ZM275.866 19.8454V51.2163H272.592V19.8454H275.866ZM234.215 19.6521L234.022 19.6506L233.796 19.6523C229.504 19.7161 225.797 21.5972 223.544 25.1709V19.8454H220.401V51.2163H223.675V32.7709L223.677 32.5808C223.781 26.4567 228.929 22.7778 234.253 22.7041L234.416 22.703H235.288L236.053 19.8454L235.909 19.8184C235.427 19.7303 234.899 19.6628 234.215 19.6521ZM45.2674 26.2765L45.4277 26.2751L45.5793 26.2763C49.9149 26.3469 53.5303 29.4508 53.6128 34.9802L53.6142 35.1741L53.6128 35.3701C53.5303 40.959 49.9149 43.9384 45.5793 44.0062L45.4277 44.0074L45.2674 44.006C40.6299 43.926 37.0448 40.3755 37.0448 35.1741C37.0448 29.9732 40.6299 26.358 45.2674 26.2765ZM85.3741 26.2751L85.2204 26.2763C80.7722 26.3477 77.1876 29.5234 77.1876 35.1741C77.1876 40.8893 80.836 43.9376 85.2225 44.0062L85.3741 44.0074L85.5366 44.006C90.1813 43.9283 93.6749 40.5185 93.7546 35.2914L93.756 35.1083L93.7546 34.9297C93.6735 29.8267 90.1186 26.3556 85.5344 26.2764L85.3741 26.2751ZM198.743 22.1863L198.988 22.1843L199.169 22.1856C205.117 22.2698 210.019 26.5166 209.866 33.1516L209.859 33.3554H186.676L186.717 33.0862C187.212 29.9607 188.574 27.3872 190.802 25.3657L190.984 25.1988C193.176 23.2231 195.726 22.2369 198.743 22.1863ZM331.723 22.1843L331.478 22.1863C328.462 22.2369 325.913 23.2231 323.719 25.1988L323.537 25.3657C321.31 27.3872 319.948 29.9607 319.453 33.0862L319.412 33.3554H342.595L342.602 33.1516C342.754 26.5166 337.853 22.2698 331.904 22.1856L331.723 22.1843ZM129.164 31.7446C130.192 27.8873 133.169 25.432 136.845 25.432C140.655 25.432 143.701 27.8948 143.848 31.7621L143.852 31.9264H129.117L129.164 31.7446Z" fill="white"/>
<path fill-rule="evenodd" clip-rule="evenodd" d="M115.889 4V51.2163H107.048V4H115.889ZM77.3187 22.1843V4.00049H68.4776V51.2163H76.5983V47.2541L76.7247 47.4192C78.9817 50.3128 82.5052 51.9358 86.7688 51.9949L87.0109 51.9966L87.2786 51.9945C96.0901 51.8563 102.596 44.8988 102.726 35.4637L102.728 35.1741L102.726 34.8874C102.597 25.4523 96.0924 18.4938 87.2813 18.3542L87.0109 18.3521L86.7488 18.3539C82.836 18.4067 79.7625 19.6487 77.4704 22.0242L77.3187 22.1843ZM136.826 18.3477L136.998 18.349L137.171 18.3521L137.44 18.3541C146.18 18.4822 152.308 24.8655 152.429 33.0423L152.431 33.2906L152.428 33.6514C152.402 34.9781 152.236 36.3488 151.929 37.7223L151.842 38.0969H129.117L129.165 38.2763C130.247 42.1948 133.474 44.395 138.01 44.4608L138.22 44.4623L138.487 44.4597C141.507 44.4018 144.352 43.3607 147.022 41.3908L147.257 41.2146L150.924 47.1898L150.687 47.3827C146.963 50.3747 142.818 51.931 138.25 51.9945L137.554 52L137.26 51.9972C127.573 51.8288 120.019 44.245 120.211 35.1741C120.017 26.0012 127.617 18.3482 136.826 18.3477ZM43.7904 18.3521L44.0326 18.3538C48.2961 18.4128 51.8201 20.0345 54.0767 22.928L54.2031 23.0931V19.0666H62.3237V51.2163H54.0724V47.4489L53.9437 47.61C51.6905 50.378 48.2327 51.9359 44.038 51.9948L43.7904 51.9966L43.52 51.9944C34.6205 51.8534 28.0736 44.7551 28.0736 35.1741C28.0736 25.5935 34.6205 18.4953 43.52 18.3542L43.7904 18.3521ZM31.3971 10.9003L31.3945 11.1892C31.3433 13.9761 30.5529 16.5839 29.21 18.8284L29.0691 19.0593L28.9476 19.2515C26.2029 23.5244 21.4147 26.3805 15.9482 26.4636L15.703 26.4655V39.1329L15.7042 39.2919C15.7567 42.759 17.5434 44.0959 21.5453 44.135L21.837 44.1351L22.1139 44.1286L22.5737 44.1101L23.2946 44.0708L24.038 44.0221L24.9129 43.9575L25.9207 43.8754V51.2163L25.5024 51.3169C23.6842 51.7397 21.9159 51.9649 20.1968 51.9931L19.8292 51.9961L19.5846 51.9949C11.6274 51.9159 6.95449 47.9677 6.86183 40.1507L6.86043 39.9127V26.4655H0V19.0666H15.703L15.8612 19.0651C20.2793 18.9824 23.8448 15.4387 23.9281 11.0571L23.9296 10.9003H31.3971ZM198.957 19.1935L198.794 19.1927C190.225 19.1937 182.947 26.7766 183.14 35.5637C182.946 44.3733 190.39 51.9083 199.243 51.8692L199.772 51.8636C204.624 51.7903 208.972 49.6709 212.053 46.2077L212.216 46.0209L210.122 43.8773L209.958 44.0665C207.223 47.1892 203.824 48.7518 199.819 48.8118L199.578 48.8136L199.366 48.8121C192.402 48.7116 187.044 43.6484 186.559 36.4978L186.546 36.2782H213.003L213.036 36.1488C213.164 35.6175 213.229 34.9245 213.253 34.0698L213.262 33.6289L213.264 33.3984L213.265 33.1611L213.263 32.9131C213.14 24.7554 206.962 19.3066 199.352 19.1974L199.119 19.1957L198.957 19.1935ZM299.038 19.1927L299.206 19.1935L299.374 19.1957L299.63 19.1976C304.739 19.2744 309.1 21.6487 312.002 25.4358L312.146 25.6263L309.787 27.5098L309.637 27.3167C307.024 24.0019 303.682 22.3134 299.61 22.2509L299.374 22.249L299.155 22.2508C292 22.3662 286.519 28.1161 286.41 35.2814L286.409 35.499L286.41 35.7225C286.52 43.0107 292.001 48.6989 299.094 48.8119L299.31 48.8136L299.545 48.8118C303.616 48.7493 306.96 47.0608 309.633 43.746L309.787 43.5529L312.146 45.4354L312.002 45.626C309.098 49.4139 304.677 51.7868 299.566 51.8636L299.31 51.8655L299.043 51.8692C290.252 51.907 282.809 44.308 283.003 35.499C282.809 26.7128 290.214 19.1927 299.038 19.1927ZM331.692 19.1935L331.53 19.1927C322.961 19.1937 315.682 26.7766 315.876 35.5637C315.681 44.3733 323.125 51.9083 331.979 51.8692L332.508 51.8636C337.359 51.7903 341.708 49.6709 344.789 46.2077L344.953 46.0209L342.857 43.8773L342.693 44.0665C339.96 47.1892 336.56 48.7518 332.555 48.8118L332.314 48.8136L332.102 48.8121C325.138 48.7116 319.78 43.6484 319.294 36.4978L319.281 36.2782H345.739L345.772 36.1488C345.932 35.4847 345.992 34.568 345.999 33.3984L346 33.1611L345.998 32.9131C345.875 24.7554 339.698 19.3066 332.088 19.1974L331.855 19.1957L331.692 19.1935ZM240.242 19.8454L251.899 46.2805L263.49 19.8454H267.027L252.62 51.8655H251.244L236.705 19.8454H240.242ZM167.729 19.1976L167.49 19.1957L167.228 19.1978C164.527 19.2411 162.256 19.9574 160.352 21.404C158.441 22.8579 157.459 24.742 157.407 27.1752L157.405 27.3792L157.407 27.5612C157.475 30.8133 159.365 32.8181 162.736 34.5956L163.116 34.7922L163.509 34.9872L163.914 35.181L164.33 35.3739C164.541 35.4702 164.757 35.5662 164.977 35.6621L165.198 35.7581L168.08 36.9928L168.883 37.3575L169.444 37.6164L169.799 37.7833L170.304 38.0269L170.622 38.1857L170.925 38.3426L171.215 38.498L171.491 38.6529C173.418 39.762 174.297 40.8747 174.547 43.1334L174.564 43.2928L174.562 43.4472C174.475 46.8704 171.516 48.7576 167.663 48.8124L167.49 48.8136L167.273 48.8117C163.458 48.7435 160.54 46.8706 157.759 43.4248L157.602 43.2281L155.31 45.3711L155.441 45.5587C158.086 49.2905 162.137 51.7841 167.176 51.8636L167.425 51.8655L167.7 51.8633C170.436 51.8177 172.769 51.0898 174.699 49.7309L174.89 49.5929L175.044 49.4767C176.923 48.0275 177.916 45.9948 177.967 43.3768L177.969 43.1633L177.967 42.9753C177.899 39.4889 175.937 37.3117 172.325 35.3642L171.932 35.1563L171.526 34.95C171.457 34.9157 171.388 34.8814 171.318 34.8472L170.894 34.6425C170.822 34.6085 170.75 34.5744 170.677 34.5404L170.234 34.3367L170.008 34.2349L166.836 32.8357L166.216 32.5676L165.824 32.3935L165.449 32.2225L165.35 32.1765L165.267 32.138L164.916 31.9708L164.581 31.8055C164.472 31.7507 164.366 31.6962 164.262 31.6418L163.959 31.479L163.671 31.3167C161.757 30.2085 160.916 29.1032 160.877 27.3173L160.875 27.1854L160.877 27.0395C160.959 23.9972 163.598 22.3025 167.125 22.2503L167.294 22.2491L167.503 22.2512C170.427 22.3103 173.052 23.6102 175.379 26.0955L175.545 26.2751L177.707 24.1973L177.577 24.0319C175.265 21.1294 171.925 19.2656 167.729 19.1976ZM275.866 19.8454V51.2163H272.592V19.8454H275.866ZM234.215 19.6521L234.022 19.6506L233.796 19.6523C229.504 19.7161 225.797 21.5972 223.544 25.1709V19.8454H220.401V51.2163H223.675V32.7709L223.677 32.5808C223.781 26.4567 228.929 22.7778 234.253 22.7041L234.416 22.703H235.288L236.053 19.8454L235.909 19.8184C235.427 19.7303 234.899 19.6628 234.215 19.6521ZM45.2674 26.2765L45.4277 26.2751L45.5793 26.2763C49.9149 26.3469 53.5303 29.4508 53.6128 34.9802L53.6142 35.1741L53.6128 35.3701C53.5303 40.959 49.9149 43.9384 45.5793 44.0062L45.4277 44.0074L45.2674 44.006C40.6299 43.926 37.0448 40.3755 37.0448 35.1741C37.0448 29.9732 40.6299 26.358 45.2674 26.2765ZM85.3741 26.2751L85.2204 26.2763C80.7722 26.3477 77.1876 29.5234 77.1876 35.1741C77.1876 40.8893 80.836 43.9376 85.2225 44.0062L85.3741 44.0074L85.5366 44.006C90.1813 43.9283 93.6749 40.5185 93.7546 35.2914L93.756 35.1083L93.7546 34.9297C93.6735 29.8267 90.1186 26.3556 85.5344 26.2764L85.3741 26.2751ZM198.743 22.1863L198.988 22.1843L199.169 22.1856C205.117 22.2698 210.019 26.5166 209.866 33.1516L209.859 33.3554H186.676L186.717 33.0862C187.212 29.9607 188.574 27.3872 190.802 25.3657L190.984 25.1988C193.176 23.2231 195.726 22.2369 198.743 22.1863ZM331.723 22.1843L331.478 22.1863C328.462 22.2369 325.913 23.2231 323.719 25.1988L323.537 25.3657C321.31 27.3872 319.948 29.9607 319.453 33.0862L319.412 33.3554H342.595L342.602 33.1516C342.754 26.5166 337.853 22.2698 331.904 22.1856L331.723 22.1843ZM129.164 31.7446C130.192 27.8873 133.169 25.432 136.845 25.432C140.655 25.432 143.701 27.8948 143.848 31.7621L143.852 31.9264H129.117L129.164 31.7446Z" fill="white"/>
<path fill-rule="evenodd" clip-rule="evenodd" d="M33.0667 0.924849C33.0267 0.407464 32.5941 0 32.0666 0C31.5131 0 31.064 0.449229 31.064 1.00324V5.25691L31.067 5.33531C31.107 5.85269 31.5395 6.26016 32.0666 6.26016C32.6205 6.26016 33.0697 5.81093 33.0697 5.25691V1.00324L33.0667 0.924849ZM39.7935 3.20711C39.4019 2.81546 38.7665 2.81546 38.3749 3.20711L35.3677 6.21477L35.3091 6.27856C34.9771 6.67258 34.9967 7.26197 35.3677 7.633C35.7593 8.02517 36.3941 8.02517 36.7857 7.633L39.7935 4.62535L39.8521 4.56156C40.184 4.16754 40.1645 3.57815 39.7935 3.20711ZM41.9969 9.94114C42.5508 9.94114 43 10.3904 43 10.9444C43 11.4715 42.5926 11.9041 42.0753 11.9441L41.9969 11.9471H37.7437C37.1898 11.9471 36.7406 11.4979 36.7406 10.9444C36.7406 10.4167 37.148 9.98416 37.6653 9.94416L37.7437 9.94114H41.9969ZM35.3679 14.2551C35.7389 13.884 36.3282 13.8645 36.7222 14.1965L36.786 14.2551L38.8187 16.288C39.2103 16.6797 39.2103 17.3146 38.8187 17.7063C38.4477 18.0773 37.8579 18.0968 37.4639 17.7648L37.4001 17.7063L35.3679 15.6733C34.9758 15.2817 34.9758 14.6467 35.3679 14.2551ZM25.2941 4.18006C25.6651 3.80902 26.2544 3.7895 26.6484 4.12148L26.7122 4.18006L28.7449 6.213C29.1365 6.60465 29.1365 7.23959 28.7449 7.63124C28.3739 8.00227 27.7841 8.0218 27.3901 7.68982L27.3263 7.63124L25.2941 5.5983C24.902 5.20665 24.902 4.57171 25.2941 4.18006Z" fill="#FFB300"/>
<path d="M18 11C18 14.3137 15.3137 17 12 17C8.68633 17 6 14.3137 6 11C6 7.68633 8.68633 5 12 5C15.3137 5 18 7.68633 18 11Z" fill="#FFB300"/>
</svg>
