<svg width="1791" height="1027" viewBox="0 0 1791 1027" fill="none" xmlns="http://www.w3.org/2000/svg">
<mask id="mask0_32:6" style="mask-type:alpha" maskUnits="userSpaceOnUse" x="1344" y="33" width="447" height="441">
<path fill-rule="evenodd" clip-rule="evenodd" d="M1344.56 33.0634H1790.09V473.082H1344.56V33.0634Z" fill="white"/>
</mask>
<g mask="url(#mask0_32:6)">
<path fill-rule="evenodd" clip-rule="evenodd" d="M1427.86 113.205C1451.9 107.084 1477.74 122.409 1490.8 141.886C1508.93 168.918 1512.28 203.179 1512.82 234.872C1512.86 237.093 1512.82 239.344 1512.82 241.58C1496.78 239.303 1480.99 235.06 1465.95 228.665C1439.88 217.586 1412.58 198.329 1403.77 170.124C1397.08 148.727 1403.52 119.405 1427.86 113.205M1508.31 298.307C1499.43 350.003 1475.94 397.938 1424.47 420.72C1410.34 426.974 1407.32 447.31 1414.29 459.558C1422.56 474.098 1439.19 475.91 1453.13 469.742C1522.27 439.138 1554.77 370.249 1565.43 299.164C1587.75 297.008 1609.54 292.015 1629.71 284.241C1722.97 248.291 1784.89 159.828 1790.05 60.411C1791.94 23.896 1735.16 23.999 1733.27 60.411C1730.18 119.925 1698.52 178.465 1648.42 211.511C1624.71 227.143 1597.59 236.88 1569.65 241.043C1569.51 196.644 1563.94 148.162 1538.08 110.698C1515.01 77.277 1476.64 53.958 1435.11 55.314C1394.03 56.656 1359.81 83.878 1348.6 123.368C1336.57 165.787 1352.42 210.327 1382.95 240.77C1416 273.728 1461.23 292.48 1508.31 298.307" fill="#983ab4"/>
</g>
<mask id="mask1_32:6" style="mask-type:alpha" maskUnits="userSpaceOnUse" x="-11" y="0" width="782" height="1027">
<path fill-rule="evenodd" clip-rule="evenodd" d="M-11 0H771V1027H-11V0Z" fill="white"/>
</mask>
<g mask="url(#mask1_32:6)">
<path fill-rule="evenodd" clip-rule="evenodd" d="M324.868 268.363C347.625 215.876 418.037 96.8443 492.566 143.729C551.161 180.593 502.745 260.611 459.287 283.627C414.798 307.187 362.611 310.518 312.847 300.761C316.394 289.797 320.282 278.943 324.868 268.363M593.197 591.664C613.982 569.837 661.854 544.751 674.332 588.168C683.284 619.317 662.117 653.727 638.959 672.736C611.153 695.562 576.819 703.534 541.965 702.236C545.915 663.19 561.759 624.683 593.197 591.664M160.359 344.19C173.157 352.456 186.629 359.909 200.578 366.581C185.464 519.483 245.299 676.757 389.126 757.548C407.773 768.023 427.868 776.761 448.741 783.566C471.06 901.913 562.76 997.252 681.256 1025.47C742.685 1040.09 768.897 945.516 707.359 930.862C637.053 914.122 582.39 862.092 556.716 799.639C617.868 797.949 677.146 776.984 720.734 730.002C796.098 648.764 795.472 479.972 658.329 466.84C541.899 455.691 468.118 569.781 448.886 677.844C441.951 674.43 435.111 670.894 428.743 666.992C333.025 608.352 290.927 502.862 295.517 397.084C368.016 410.577 444.337 403.359 508.845 368.342C601.021 318.305 650.893 196.412 588.294 103.408C511.106 -11.2758 359.87 42.976 290.388 134.007C259.875 173.987 237.18 219.114 221.665 266.429C219.643 265.249 217.438 264.276 215.46 263.054C134.333 212.955 88.5454 122.826 87.1998 28.7486C87.0321 16.9665 83.4607 7.38934 77.7828 0H-2.42701C-7.87141 7.38589 -11.1574 16.9595 -10.9879 28.7486C-9.17198 155.676 52.9717 274.837 160.359 344.19" fill="#983ab4"/>
</g>
</svg>
