<svg width="45" height="51" viewBox="0 0 45 51" fill="none" xmlns="http://www.w3.org/2000/svg">
<mask id="mask0_0:293" style="mask-type:alpha" maskUnits="userSpaceOnUse" x="0" y="0" width="45" height="51">
<path fill-rule="evenodd" clip-rule="evenodd" d="M0 0H45V51H0V0Z" fill="white"/>
</mask>
<g mask="url(#mask0_0:293)">
<path fill-rule="evenodd" clip-rule="evenodd" d="M36.4696 42.4829C32.7381 46.2085 27.777 48.2602 22.5 48.2602C17.223 48.2602 12.2619 46.2085 8.5305 42.4829C4.79906 38.7573 2.74409 33.804 2.74409 28.5352C2.74409 23.2664 4.79906 18.313 8.5305 14.5875C12.2619 10.8619 17.223 8.81013 22.5 8.81013C27.777 8.81013 32.7381 10.8619 36.4696 14.5875C40.2009 18.313 42.2559 23.2664 42.2559 28.5352C42.2559 33.804 40.2009 38.7573 36.4696 42.4829ZM38.8993 13.1558L41.2728 10.786L38.1377 7.656L35.5557 10.234C32.1881 7.82837 28.2375 6.40877 24.0637 6.12456V4.71167H26.337V0H18.6631V4.71167H20.9363V6.12456C16.7626 6.40877 12.8119 7.82837 9.44428 10.234L6.86227 7.656L3.72725 10.786L6.10069 13.1558C2.16173 17.3364 0 22.7696 0 28.5352C0 34.5358 2.3404 40.1771 6.59008 44.4202C10.8398 48.6633 16.49 51 22.5 51C28.51 51 34.1602 48.6633 38.4099 44.4202C42.6596 40.1771 45 34.5358 45 28.5352C45 22.7696 42.8383 17.3364 38.8993 13.1558Z" fill="#1E1E1E"/>
</g>
<path fill-rule="evenodd" clip-rule="evenodd" d="M22.9818 26.1945C21.933 25.8003 20.7079 26.0298 19.8652 26.8848C18.7116 28.0549 18.7116 29.9522 19.8652 31.1224C21.0187 32.2925 22.889 32.2925 24.0425 31.1224C24.8001 30.3539 25.0601 29.2718 24.8225 28.2879L33 18L22.9818 26.1945Z" fill="#1E1E1E"/>
</svg>
