<svg width="1347" height="926" viewBox="0 0 1347 926" fill="none" xmlns="http://www.w3.org/2000/svg">
<path fill-rule="evenodd" clip-rule="evenodd" d="M-137 100C-137 100 62.7595 25.1437 237.931 50.5C242.588 51.1741 348.244 48.0649 408.572 62C446.955 70.8659 683.368 150.702 741.444 157.5C844.207 169.528 920.275 174.457 991.397 174.5C1056.85 174.539 1182.5 198 1182.5 198C1182.5 198 1097.28 270.827 1136.8 319.567C1167.21 357.066 1238.89 349.545 1272.6 372.324C1335.51 414.842 1354.12 475.727 1344.7 518.032C1337.12 552.056 1287.97 672.58 1182.47 732.574C1096.49 781.467 957.189 768.651 902.472 811.96C837.999 862.991 902.472 923 902.472 923L-137 921.995V100Z" fill="#304FFE" fill-opacity="0.0535675"/>
<mask id="mask0_5:2" style="mask-type:alpha" maskUnits="userSpaceOnUse" x="366" y="506" width="77" height="57">
<path fill-rule="evenodd" clip-rule="evenodd" d="M366 506H443V563H366V506Z" fill="white"/>
</mask>
<g mask="url(#mask0_5:2)">
<path fill-rule="evenodd" clip-rule="evenodd" d="M388.524 529.411C387.729 528.128 386.998 526.806 386.334 525.449C386.226 525.228 385.881 524.484 385.802 524.337C385.555 523.731 385.327 523.114 385.113 522.496C384.618 521.069 384.198 519.619 383.853 518.149C383.682 517.413 383.546 516.671 383.394 515.931C383.336 515.651 383.302 515.502 383.277 515.4C383.279 515.321 383.266 515.11 383.218 514.633C382.748 509.995 379.605 506 374.625 506C370.343 506 365.56 509.966 366.032 514.633C367.676 530.857 375.931 545.374 389.483 554.528C403.025 563.677 421.544 565.52 436.684 559.55C441.001 557.847 444.008 553.765 442.685 548.93C441.554 544.796 436.459 541.187 432.115 542.9C425.67 545.442 421.254 545.905 414.502 545.583C409.775 545.357 403.463 543.042 398.911 540.117C394.972 537.585 391.118 533.596 388.524 529.411" fill="#04A14D"/>
</g>
<path fill-rule="evenodd" clip-rule="evenodd" d="M578.419 276.867C590.094 314.606 606.637 364.91 579.748 400.035C547.733 441.859 503.904 395.377 475.997 372.529C409.809 318.333 302.552 288.661 237.808 362.751C206.098 399.04 202.371 447.79 206.672 493.752C210.831 538.201 229.372 589.732 211.274 633.173C173.202 724.551 50.1754 625.289 4.80852 597.624C-36.9444 572.164 -81.686 554.376 -131.382 561.435C-174.375 567.538 -211.528 592.231 -228.127 632.961C-243.602 670.923 -184.161 693.734 -168.689 655.777C-154.905 621.957 -109.206 618.594 -78.469 627.473C-29.7573 641.546 9.48542 680.114 53.2668 704.217C121.169 741.604 220.193 749.056 263.302 671.319C287.422 627.82 283.299 575.862 275.889 528.495C269.442 487.294 255.05 425.803 294.748 396.18C334.756 366.326 388.035 386.365 423.845 412.555C463.259 441.381 497.856 481.993 550.823 481.252C596.125 480.618 633.308 446.563 648.622 405.457C667.678 354.303 651.969 300.708 636.584 250.97C624.483 211.854 566.437 238.13 578.419 276.867" fill="#304FFE" fill-opacity="0.0584299"/>
<mask id="mask1_5:2" style="mask-type:alpha" maskUnits="userSpaceOnUse" x="797" y="747" width="99" height="98">
<path fill-rule="evenodd" clip-rule="evenodd" d="M797 747H896V845H797V747Z" fill="white"/>
</mask>
<g mask="url(#mask1_5:2)">
<path fill-rule="evenodd" clip-rule="evenodd" d="M815.51 764.849C820.85 763.486 826.592 766.899 829.495 771.237C833.524 777.257 834.267 784.888 834.388 791.946C834.396 792.441 834.388 792.942 834.389 793.44C830.823 792.933 827.315 791.988 823.972 790.564C818.181 788.096 812.114 783.808 810.156 777.526C808.67 772.76 810.1 766.23 815.51 764.849M833.385 806.074C831.413 817.588 826.193 828.264 814.756 833.338C811.617 834.731 810.945 839.26 812.494 841.988C814.332 845.226 818.027 845.63 821.124 844.256C836.488 837.44 843.709 822.097 846.079 806.265C851.037 805.785 855.88 804.673 860.361 802.942C881.085 794.935 894.843 775.233 895.99 753.091C896.411 744.958 883.794 744.981 883.374 753.091C882.688 766.346 875.653 779.384 864.519 786.743C859.252 790.225 853.224 792.394 847.015 793.321C846.985 783.432 845.746 772.635 840 764.291C834.874 756.847 826.348 751.654 817.12 751.956C807.992 752.254 800.387 758.317 797.897 767.112C795.223 776.56 798.747 786.48 805.529 793.26C812.873 800.6 822.924 804.777 833.385 806.074" fill="#FFABD1"/>
</g>
</svg>
