<svg width="84" height="105" viewBox="0 0 84 105" fill="none" xmlns="http://www.w3.org/2000/svg">
<path fill-rule="evenodd" clip-rule="evenodd" d="M65.047 95.9573L62.615 92.8463H62.231V98.7023H63.408V95.6353L64.855 97.4483H65.238L66.685 95.6353V98.7023H67.862V92.8463H67.478L65.047 95.9573ZM61.191 94.0143V92.9513H56.328V94.0143H58.167V98.7023H59.343V94.0143H61.191Z" fill="white"/>
<path d="M47.128 21.0993C47.128 30.2823 39.684 37.7403 30.502 37.7403H0V52.8173H12.63V80.2193C12.63 96.6343 22.294 104.842 38.84 104.842C42.812 104.842 46.915 104.313 51.152 103.254V88.2953C46.518 88.6923 43.739 88.8253 42.679 88.8253C34.206 88.8253 30.502 86.0453 30.502 78.6303V52.8173C41.921 52.8173 51.929 46.7813 57.514 37.7263C60.497 32.8913 62.22 27.1973 62.22 21.0993H47.128Z" fill="white"/>
<path fill-rule="evenodd" clip-rule="evenodd" d="M63.5353 0.514C63.1863 0.18 62.7593 0 62.3273 0L62.2563 0.002C61.1423 0.048 60.3043 0.88 60.3043 1.936V10.135L60.313 10.3055C60.3591 10.7611 60.5865 11.2183 60.9403 11.557C61.3093 11.908 61.7663 12.084 62.2193 12.069C63.3323 12.018 64.1713 11.186 64.1713 10.135V1.936L64.1625 1.76572C64.1164 1.31064 63.889 0.852667 63.5353 0.514ZM75.2779 6.0567C75.7759 6.0567 76.2839 6.2417 76.6909 6.6137C77.0289 6.9247 77.2209 7.3777 77.2319 7.8877C77.2425 8.37659 77.0801 8.85916 76.7925 9.21179L76.6789 9.3377L70.8839 15.1327C70.1479 15.8687 68.9419 15.8607 68.1349 15.1207C67.7959 14.8097 67.6039 14.3567 67.5929 13.8457C67.5831 13.3577 67.7455 12.876 68.0332 12.5229L68.1469 12.3967L73.9429 6.6017C74.3059 6.2377 74.7869 6.0567 75.2779 6.0567ZM51.7581 7.98312C51.4155 7.70219 50.9504 7.541 50.4767 7.541H50.4317L50.2633 7.55132C49.821 7.59647 49.4332 7.78156 49.1577 8.082C48.4167 8.889 48.4117 10.097 49.1457 10.831L53.5217 15.209L53.6485 15.3229C54.0043 15.6109 54.4943 15.7719 54.9717 15.763C55.4837 15.752 55.9357 15.559 56.2477 15.221C56.9887 14.414 56.9937 13.206 56.2587 12.473L51.8807 8.094L51.7581 7.98312ZM81.3148 19.184C82.3658 19.184 83.1958 20.023 83.2488 21.136C83.2698 21.593 83.0878 22.047 82.7368 22.415C82.399 22.7688 81.9411 22.9961 81.4853 23.0423L81.3148 23.051H73.1158C72.0768 23.051 71.2288 22.195 71.1818 21.099C71.1608 20.642 71.3418 20.188 71.6938 19.82C72.0315 19.4662 72.4894 19.2389 72.9452 19.1927L73.1158 19.184H81.3148ZM69.433 26.5487C69.9094 26.5416 70.4016 26.7012 70.7566 26.9882L70.883 27.1017L75.261 31.4807C75.995 32.2147 75.99 33.4217 75.25 34.2287C74.938 34.5667 74.485 34.7597 73.973 34.7707C73.4921 34.7707 73.0056 34.6158 72.6507 34.33L72.524 34.2167L68.147 29.8397C67.416 29.1067 67.421 27.8997 68.159 27.0897C68.47 26.7517 68.922 26.5597 69.433 26.5487Z" fill="#FFB300"/>
<path d="M32.6503 22.3901C32.6503 28.5121 27.6873 33.4751 21.5653 33.4751C15.4433 33.4751 10.4803 28.5121 10.4803 22.3901C10.4803 16.2681 15.4433 11.3051 21.5653 11.3051C27.6873 11.3051 32.6503 16.2681 32.6503 22.3901Z" fill="#FFB300"/>
</svg>
