<svg width="80" height="60" viewBox="0 0 80 60" fill="none" xmlns="http://www.w3.org/2000/svg">
<path d="M28.8639 25.061C31.8192 26.491 34.1072 28.5883 35.7279 31.353C37.3485 34.0223 38.1589 37.216 38.1589 40.934C38.1589 46.4633 36.3952 50.8963 32.8679 54.233C29.3405 57.5697 24.8122 59.238 19.2829 59.238C13.7535 59.238 9.22521 57.5697 5.69788 54.233C2.17054 50.8963 0.406875 46.4633 0.406875 40.934C0.406875 38.4553 0.740542 35.9767 1.40788 33.498C2.07521 31.0193 3.60054 27.2537 5.98388 22.201L15.9939 0.893994H36.0139L28.8639 25.061ZM70.3339 25.061C73.2892 26.491 75.5772 28.5883 77.1979 31.353C78.8185 34.0223 79.6289 37.216 79.6289 40.934C79.6289 46.4633 77.8652 50.8963 74.3379 54.233C70.8105 57.5697 66.2822 59.238 60.7529 59.238C55.2235 59.238 50.6952 57.5697 47.1679 54.233C43.6405 50.8963 41.8769 46.4633 41.8769 40.934C41.8769 38.4553 42.2105 35.9767 42.8779 33.498C43.5452 31.0193 45.0705 27.2537 47.4539 22.201L57.4639 0.893994H77.4839L70.3339 25.061Z" fill="#304FFE" fill-opacity="0.159528"/>
</svg>
