<svg width="80" height="59" viewBox="0 0 80 59" fill="none" xmlns="http://www.w3.org/2000/svg">
<path d="M19.2829 0.463995C24.8122 0.463995 29.3405 2.13233 32.8679 5.469C36.3952 8.80566 38.1589 13.2387 38.1589 18.768C38.1589 21.2467 37.8252 23.7253 37.1579 26.204C36.4905 28.6827 34.9652 32.4483 32.5819 37.501L22.5719 58.808H2.55188L9.70188 34.641C6.74654 33.211 4.45854 31.1613 2.83788 28.492C1.21721 25.7273 0.406875 22.486 0.406875 18.768C0.406875 13.2387 2.17054 8.80566 5.69788 5.469C9.22521 2.13233 13.7535 0.463995 19.2829 0.463995ZM60.7529 0.463995C66.2822 0.463995 70.8105 2.13233 74.3379 5.469C77.8652 8.80566 79.6289 13.2387 79.6289 18.768C79.6289 21.2467 79.2952 23.7253 78.6279 26.204C77.9605 28.6827 76.4352 32.4483 74.0519 37.501L64.0419 58.808H44.0219L51.1719 34.641C48.2165 33.211 45.9285 31.1613 44.3079 28.492C42.6872 25.7273 41.8769 22.486 41.8769 18.768C41.8769 13.2387 43.6405 8.80566 47.1679 5.469C50.6952 2.13233 55.2235 0.463995 60.7529 0.463995Z" fill="#304FFE" fill-opacity="0.159528"/>
</svg>
