<svg width="43" height="43" viewBox="0 0 43 43" fill="none" xmlns="http://www.w3.org/2000/svg">
<path fill-rule="evenodd" clip-rule="evenodd" d="M28.2397 33.7273C27.27 32.7576 25.6979 32.7576 24.7282 33.7273C23.7573 34.6971 23.7573 36.2692 24.7282 37.239L29.7603 42.2727C30.73 43.2424 32.3034 43.2424 33.2718 42.2727C34.2427 41.3029 34.2427 39.7308 33.2718 38.7597L28.2397 33.7273Z" fill="#FFB300"/>
<mask id="mask0_0:62" style="mask-type:alpha" maskUnits="userSpaceOnUse" x="0" y="9" width="10" height="10">
<path fill-rule="evenodd" clip-rule="evenodd" d="M0 9H10V19H0V9Z" fill="white"/>
</mask>
<g mask="url(#mask0_0:62)">
<path fill-rule="evenodd" clip-rule="evenodd" d="M4.24002 9.72731C3.27024 8.75756 1.69804 8.75756 0.726971 9.72731C-0.242812 10.6971 -0.242812 12.2692 0.726971 13.239L5.76085 18.2727C6.73063 19.2424 8.30284 19.2424 9.27262 18.2727C10.2424 17.3029 10.2424 15.7295 9.27262 14.7597L4.24002 9.72731Z" fill="#FFB300"/>
</g>
<path fill-rule="evenodd" clip-rule="evenodd" d="M30.4041 23C29.0765 23 28 24.1184 28 25.4994C28 26.8803 29.0765 28 30.4041 28H40.5972C41.9248 28 43 26.8803 43 25.4994C43 24.1184 41.9248 23 40.5972 23H30.4041Z" fill="#FFB300"/>
<path fill-rule="evenodd" clip-rule="evenodd" d="M19 2.40283C19 1.07525 17.8803 0 16.4994 0C15.1197 0 14 1.07525 14 2.40283V12.5959C14 13.9235 15.1197 15 16.4994 15C17.8803 15 19 13.9235 19 12.5959V2.40283Z" fill="#FFB300"/>
<path fill-rule="evenodd" clip-rule="evenodd" d="M24.703 14.9025C23.7657 15.8399 23.7657 17.3596 24.703 18.297C25.6404 19.2343 27.16 19.2343 28.0974 18.297L35.297 11.0984C36.2343 10.161 36.2343 8.64134 35.297 7.70397C34.3584 6.76534 32.8388 6.76534 31.9014 7.70397L24.703 14.9025Z" fill="#FFB300"/>
</svg>
