<svg width="1760" height="923" viewBox="0 0 1760 923" fill="none" xmlns="http://www.w3.org/2000/svg">
<mask id="mask0_13:2" style="mask-type:alpha" maskUnits="userSpaceOnUse" x="1216" y="698" width="544" height="225">
<path fill-rule="evenodd" clip-rule="evenodd" d="M1216 698H1759.52V922.529H1216V698Z" fill="white"/>
</mask>
<g mask="url(#mask0_13:2)">
<path fill-rule="evenodd" clip-rule="evenodd" d="M1377.99 719.727C1368.36 706.068 1346.14 698.896 1333.41 713.982C1296.64 757.544 1259.88 801.105 1223.11 844.667C1199.69 872.424 1239.65 912.782 1263.26 884.812C1292.43 850.247 1321.6 815.681 1350.78 781.115C1371.94 814.784 1390.3 850.134 1405.1 887.142C1414 909.381 1443.1 916.025 1456.99 893.924C1481.53 854.846 1509.67 818.781 1540.95 785.324C1546.87 824.289 1552.79 863.254 1558.7 902.219C1562.05 924.259 1592.3 928.242 1606.15 914.747C1654.43 867.708 1702.71 820.671 1750.98 773.633C1777.2 748.091 1737.04 707.963 1710.84 733.488C1675.78 767.642 1640.73 801.794 1605.67 835.949C1599.71 796.695 1593.75 757.442 1587.79 718.187C1584.38 695.732 1554.41 692.704 1540.34 705.661C1502.15 740.836 1467.78 779.706 1437.42 821.648C1420.34 786.214 1400.83 752.127 1377.99 719.727" fill="#FFC003"/>
</g>
<mask id="mask1_13:2" style="mask-type:alpha" maskUnits="userSpaceOnUse" x="0" y="0" width="722" height="909">
<path fill-rule="evenodd" clip-rule="evenodd" d="M0 0H722V909H0V0Z" fill="white"/>
</mask>
<g mask="url(#mask1_13:2)">
<path fill-rule="evenodd" clip-rule="evenodd" d="M0.000894738 304.439C-0.265249 383.969 58.87 449.837 141.161 442.87C185.495 439.116 224.003 417.868 260.074 393.209C301.344 364.994 342.157 336.092 383.18 307.52C412.342 287.209 458.886 245.832 497.606 263.394C526.292 276.407 523.708 317.487 512.24 341.495C494.559 378.51 455.782 402.817 424.045 426.598C387.784 453.768 353.092 482.835 320.845 514.69C267.131 567.751 198.165 649.788 249.405 727.991C290.485 790.685 379.496 788.936 438.378 755.288C471.764 736.209 499.145 708.598 530.49 686.643C551.789 671.724 608.714 638.905 627.027 675.738C636.413 694.616 621.155 722.814 615.753 741.205C608.851 764.704 602.263 792.372 603.352 817.067C605.283 860.841 635.969 899.991 679.544 908.301C722.155 916.426 740.408 851.179 697.556 843.007C654.337 834.764 675.082 778.763 683.857 750.367C695.285 713.39 705.839 672.974 683.497 637.63C642.825 573.285 556.246 588.217 502.321 624.037C454.897 655.538 406.073 719.181 342.791 710.62C305.834 705.621 292.056 674.857 305.92 640.928C320.767 604.594 354.973 575.326 382.869 548.925C439.893 494.96 517.594 455.752 562.108 390.047C598.641 336.124 599.498 250.04 541.271 210.289C467.373 159.839 386.443 222.96 326.675 264.587C289.26 290.647 252.331 317.635 214.194 342.63C182.586 363.348 137.523 389.339 99.534 369.225C68.8499 352.982 62.9195 310.338 71.0303 279.784C82.7407 235.667 117.444 201.578 149.779 171.353C220.433 105.306 298.814 48.573 382.353 0H256.022C212.911 29.799 171.318 61.7759 131.882 96.3457C70.4372 150.212 0.295682 216.288 0.000894738 304.439" fill="#04A14D"/>
</g>
</svg>
