<svg xmlns="http://www.w3.org/2000/svg" width="755" height="960" viewBox="0 0 755 960">
  <g id="TS_icon--gradbg" opacity="0.077">
    <path id="TM" d="M98.775,47V22.385l-13.8,14.55H81.322l-13.8-14.55V47H56.3V0h3.662L83.154,24.969,106.338,0H110V47ZM17.538,47V9.374H0V.842H46.379V9.374H28.754V47Z" transform="translate(519 850)" fill="#fff"/>
    <path id="T" d="M428.712,0c0,84.545-67.716,153.209-151.243,153.209H0v138.81H114.892V544.3c0,151.129,87.911,226.7,238.426,226.7h0q54.2,0,112-14.62h0V618.656c-42.154,3.655-67.434,4.88-77.077,4.88h0c-77.077,0-110.771-25.595-110.771-93.863h0V292.019c103.876,0,194.916-55.572,245.721-138.939h0A293.184,293.184,0,0,0,566,0H428.712Z" transform="translate(0 189)" fill="#fff"/>
    <path id="Click" d="M217.949,310.02,216.8,309,177.139,269.47c-6.624-6.62-6.578-17.519.109-24.834a15.922,15.922,0,0,1,11.544-4.886,19.1,19.1,0,0,1,11.994,3.969l1.146,1.025L241.6,284.289c6.651,6.629,6.606,17.528-.1,24.816a15.985,15.985,0,0,1-11.571,4.9A19.44,19.44,0,0,1,217.949,310.02Zm4.215-101.856c-9.415,0-17.1-7.731-17.525-17.628a15.662,15.662,0,0,1,4.64-11.55,18.632,18.632,0,0,1,11.34-5.665l1.545-.078h74.3c9.524,0,17.045,7.577,17.525,17.627a15.7,15.7,0,0,1-4.639,11.551,18.624,18.624,0,0,1-11.339,5.665l-1.546.079Zm-176.4-69.79-1.149-1.029L4.958,97.81c-6.651-6.629-6.606-17.537.109-24.825a15.55,15.55,0,0,1,10.019-4.793l1.525-.094h.408a18.558,18.558,0,0,1,11.612,3.993l1.111,1,39.671,39.545c6.661,6.619,6.615,17.528-.1,24.816a15.971,15.971,0,0,1-11.563,4.9q-.17,0-.34,0A18.913,18.913,0,0,1,45.761,138.375Zm131.269-1.826a15.8,15.8,0,0,1-4.911-11.514,18.518,18.518,0,0,1,3.99-11.947l1.03-1.139,52.521-52.332a16.982,16.982,0,0,1,12.1-4.921,19.032,19.032,0,0,1,12.8,5.03,15.828,15.828,0,0,1,4.9,11.5,18.475,18.475,0,0,1-3.982,11.957l-1.03,1.137L201.94,136.657a17.049,17.049,0,0,1-12.123,4.945A18.986,18.986,0,0,1,177.03,136.549Zm-65.194-32.182a18.54,18.54,0,0,1-5.684-11.3l-.079-1.541V17.483c0-9.536,7.593-17.05,17.689-17.465L124.4,0A15.911,15.911,0,0,1,135.35,4.641a18.566,18.566,0,0,1,5.684,11.3l.079,1.538V91.525c0,9.491-7.6,17.006-17.689,17.465q-.243.008-.486.008A16.167,16.167,0,0,1,111.836,104.367Z" transform="translate(441)" fill="#ffb300"/>
    <path id="Head" d="M204,102A102,102,0,1,1,102,0,102,102,0,0,1,204,102" transform="translate(95 110)" fill="#ffb300"/>
  </g>
</svg>
