<svg width="544" height="225" viewBox="0 0 544 225" fill="none" xmlns="http://www.w3.org/2000/svg">
<mask id="mask0_0:76" style="mask-type:alpha" maskUnits="userSpaceOnUse" x="0" y="0" width="544" height="225">
<path fill-rule="evenodd" clip-rule="evenodd" d="M0 0H543.516V224.529H0V0Z" fill="white"/>
</mask>
<g mask="url(#mask0_0:76)">
<path fill-rule="evenodd" clip-rule="evenodd" d="M161.994 21.7273C152.363 8.06831 130.142 0.896305 117.409 15.9823C80.6433 59.5443 43.8783 103.105 7.11232 146.667C-16.3147 174.424 23.6503 214.782 47.2583 186.812C76.4313 152.247 105.604 117.681 134.778 83.1153C155.944 116.784 174.299 152.134 189.101 189.142C197.997 211.381 227.104 218.025 240.986 195.924C265.53 156.846 293.668 120.781 324.946 87.3243C330.865 126.289 336.785 165.254 342.703 204.219C346.051 226.259 376.296 230.242 390.149 216.747C438.428 169.708 486.705 122.671 534.983 75.6333C561.199 50.0913 521.036 9.9633 494.84 35.4883C459.784 69.6423 424.729 103.794 389.674 137.949C383.712 98.6953 377.748 59.4423 371.786 20.1873C368.375 -2.26769 338.409 -5.29569 324.341 7.66131C286.146 42.8363 251.78 81.7063 221.422 123.648C204.344 88.2143 184.833 54.1273 161.994 21.7273Z" fill="#FFC003"/>
</g>
</svg>
